<?xml version="1.0" encoding="utf-8"?>
<!-- Generator: Adobe Illustrator 27.5.0, SVG Export Plug-In . SVG Version: 6.00 Build 0)  -->
<svg version="1.2" baseProfile="tiny-ps" id="katman_1"
	 xmlns="http://www.w3.org/2000/svg" xmlns:xlink="http://www.w3.org/1999/xlink" x="0px" y="0px" viewBox="0 0 96 96"
	 overflow="visible" xml:space="preserve">
<title>Inan Kardesler</title>
<g>
	<path fill="#EE7528" d="M32.28,32.57C22,44.88,18.82,73.54,24.03,80.49c0.99,1.29,2,1.43,3.04,0.43c3.13-2.96,4.89-5.57,6.01-8.32
		c0.54-1.41,0.69-2.17,0.29-3.62C30.36,56.74,29.86,44.36,32.28,32.57z"/>
	<path fill="#EE7528" d="M31.09,22.95c1.16-2.19,3.09-3.44,4.3-2.8c1.21,0.64,1.25,2.94,0.08,5.13c-1.16,2.19-3.09,3.44-4.3,2.8
		C29.96,27.44,29.92,25.14,31.09,22.95z"/>
	<path fill="#EE7528" d="M61.6,19.49c5.83-2.88,10.16-3.61,11.78-1.95c2.48,2.54-2.54,13.65-13.65,21.16
		c-10.13,6.86-18.17,10.16-21.39,8.75c-0.31-0.13-0.57-0.31-0.79-0.54c-2.48-2.54,2.87-13.22,13.61-21
		C54.94,23.19,58.48,21.03,61.6,19.49z"/>
	<path fill="#D5EAEC" d="M37.91,47.02c-2.97-1.24-1.29-14.02,6.1-26.61C51.46,7.69,58.56,0.49,61.53,1.73
		c1.83,0.77,2.05,6.03,0.12,12.89c-1.2,4.25-3.22,9.11-6.2,13.9c-7.39,11.88-13.88,19-17.06,18.63
		C38.22,47.13,38.06,47.08,37.91,47.02z"/>
	<path fill="#EE7528" d="M61.6,76.21c5.83,2.88,10.16,3.61,11.78,1.95c2.48-2.54-2.54-13.65-13.65-21.16
		c-10.13-6.86-18.17-10.16-21.39-8.75c-0.31,0.13-0.57,0.31-0.79,0.54c-2.48,2.54,2.87,13.22,13.61,21
		C54.94,72.51,58.48,74.67,61.6,76.21z"/>
	<path fill="#D5EAEC" d="M37.91,48.68c-2.97,1.24-1.29,14.02,6.1,26.61c7.45,12.72,14.55,19.92,17.52,18.68
		c1.83-0.77,2.05-6.03,0.12-12.89c-1.2-4.25-3.22-9.11-6.2-13.9c-7.39-11.88-13.88-19-17.06-18.63
		C38.22,48.57,38.06,48.62,37.91,48.68z"/>
	<path fill="#59C1D3" d="M37.18,46.34c-1.4-3.3,3.92-13.13,13.99-20.42c2.98-2.15,5.81-3.95,8.39-5.37
		c-1.09,2.6-2.45,5.29-4.12,7.96c-7.39,11.88-13.88,19-17.06,18.63c-0.17-0.02-0.33-0.06-0.48-0.12
		C37.62,46.9,37.38,46.67,37.18,46.34z"/>
	<path fill="#59C1D3" d="M37.18,49.36c-1.4,3.3,3.92,13.13,13.99,20.42c2.98,2.15,5.81,3.95,8.39,5.37
		c-1.09-2.6-2.45-5.29-4.12-7.96c-7.39-11.88-13.88-19-17.06-18.63c-0.17,0.02-0.33,0.06-0.48,0.12
		C37.62,48.8,37.38,49.03,37.18,49.36z"/>
</g>
</svg>
